# xmcd
# 
# Track frame offsets:
#     150
#     22225
#     44570
#     66855
#     88728
#     108418
#     128268
#     150000
#     171248
#     190465
#     210300
#     229413
#     250130
#     271478
# 
# Disc length: 3986
# 
# Revision: 2
# Processed by: cddbd v1.5.2PL0 Copyright (c) Steve Scherf et al.
# Submitted via: fre:ac v1.0.17
# 
DISCID=be0f900e
DTITLE=高橋真梨子 - Ｓｉｎｇｌｅ　Ｃｏｌｌｅｃｔｉｏｎ Disc 2
DYEAR=2005
DGENRE=Ballad
TTITLE0=恋する瞳
TTITLE1=十六夜（アニメ「シティーハンター」エンディングテーマ）
TTITLE2=ヒ・ラ・ヒ・ラ淫ら
TTITLE3=遠いＰｒｏｐｈｅｃｙ（ＡＮＢ系「素敵にドキュメント」エンディングテーマ）
TTITLE4=はがゆい唇（ＴＢＳ系ドラマ「眠れない夜を数えて」主題歌）
TTITLE5=とまどい小夜曲（セレナーデ）（ＴＢＳ系「噂の東京マガジン」エンディングテーマ）
TTITLE6=貴方が生きたＬｏｖｅ　Ｓｏｎｇ（ＴＢＳ系「ムーブ」１２月テーマソング）
TTITLE7=Ｓｉｎｃｅｒｅｌｙ（ＵＮＩＭＡＴイメージソング）
TTITLE8=遥かな人へ（ＮＨＫ　リレハンメルオリンピックテーマソング）
TTITLE9=そっと…Ｌｏｖｉｎ’　ｙｏｕ（ＵＮＩＭＡＴグループイメージソング）
TTITLE10=涙の街角（ＴＢＳ系ドラマ「おかみ三代女の戦い」主題歌）
TTITLE11=Ｓｏ　ｉｎ　Ｌｏｖｅ（ＵＮＩＭＡＴグループイメージソング）
TTITLE12=ごめんね…（ＮＴＶ系「火曜サスペンス劇場」主題歌）
TTITLE13=海色の風〜君住む場所へ〜（ＡＮＢ系「驚きももの木２０世紀」エンディングテーマ）
EXTD=YEAR: 2005
EXTT0=
EXTT1=
EXTT2=
EXTT3=
EXTT4=
EXTT5=
EXTT6=
EXTT7=
EXTT8=
EXTT9=
EXTT10=
EXTT11=
EXTT12=
EXTT13=
PLAYORDER=
